{"title":"Cobra-720p MP4 AAC x264 BRRip 1986-CC","uid":7142142,"size":2008006830,"categoryP":"video","categoryS":"hd___movies","magnet":"?xt=urn:btih:6d5d266550fd45d15c5dad61a7aa17c9e53a7a53&amp;dn=Cobra-720p+MP4+AAC+x264+BRRip+1986-CC&amp;tr=udp%3A%2F%2Ftracker.openbittorrent.com%3A80&amp;tr=udp%3A%2F%2Fopen.demonii.com%3A1337&amp;tr=udp%3A%2F%2Ftracker.coppersurfer.tk%3A6969&amp;tr=udp%3A%2F%2Fexodus.desync.com%3A6969","seeders":0,"leechers":1,"uploader":"Caveman44","files":-1,"time":1333035906,"description":"Source: Cobra.1986.720p.BluRay.x264-LCHD\n\nSubs: Arabic, Brazilian, Bulgarian, Chinese, Croatian, Danish, Dutch, English, Farsi-Persian, Finnish, Greek, Hebrew, Servian, Slovenian, Turkish and Vietnamese.\n\nSample and Screens included.\n\nGeneral\nComplete name                    : Cobra-720p MP4 AAC x264 BRRip 1986-CC.mp4\nFormat                           : MPEG-4\nFormat profile                   : Base Media\nCodec ID                         : isom\nFile size                        : 1.85 GiB\nDuration                         : 1h 27mn\nOverall bit rate                 : 3 049 Kbps\nEncoded date                     : UTC 2012-03-28 08:31:46\n\nVideo\nID                               : 1\nFormat                           : AVC\nFormat/Info                      : Advanced Video Codec\nFormat profile                   : &lt;a class=&quot;__cf_email__&quot; href=&quot;/cdn-cgi/l/email-protection&quot; data-cfemail=&quot;4c04252b240c007f627d&quot;&gt;[email&amp;#160;protected]&lt;/a&gt;&lt;script cf-hash='f9e31' type=&quot;text/javascript&quot;&gt;\n/* &lt;![CDATA[ */!function(){try{var t=&quot;currentScript&quot;in document?document.currentScript:function(){for(var t=document.getElementsByTagName(&quot;script&quot;),e=t.length;e--;)if(t[e].getAttribute(&quot;cf-hash&quot;))return t[e]}();if(t&amp;&amp;t.previousSibling){var e,r,n,i,c=t.previousSibling,a=c.getAttribute(&quot;data-cfemail&quot;);if(a){for(e=&quot;&quot;,r=parseInt(a.substr(0,2),16),n=2;a.length-n;n+=2)i=parseInt(a.substr(n,2),16)^r,e+=String.fromCharCode(i);e=document.createTextNode(e),c.parentNode.replaceChild(e,c)}}}catch(u){}}();/* ]]&gt; */&lt;/script&gt;\nFormat settings, CABAC           : Yes\nFormat settings, ReFrames        : 5 frames\nCodec ID                         : avc1\nCodec ID/Info                    : Advanced Video Coding\nDuration                         : 1h 27mn\nBit rate mode                    : Variable\nBit rate                         : 2 661 Kbps\nNominal bit rate                 : 2 695 Kbps\nMaximum bit rate                 : 23.5 Mbps\nWidth                            : 1 280 pixels\nHeight                           : 720 pixels\nDisplay aspect ratio             : 16:9\nFrame rate mode                  : Variable\nFrame rate                       : 23.976 fps\nMinimum frame rate               : 19.048 fps\nMaximum frame rate               : 24.390 fps\nResolution                       : 24 bits\nColorimetry                      : 4:2:0\nScan type                        : Progressive\nBits/(Pixel*Frame)               : 0.120\nStream size                      : 1.62 GiB (87%)\nWriting library                  : x264 core 112\n\nAudio\nID                               : 2\nFormat                           : AAC\nFormat/Info                      : Advanced Audio Codec\nFormat version                   : Version 4\nFormat profile                   : LC\nFormat settings, SBR             : No\nCodec ID                         : 40\nDuration                         : 1h 27mn\nBit rate mode                    : Variable\nBit rate                         : 384 Kbps\nMaximum bit rate                 : 513 Kbps\nChannel(s)                       : 6 channels\nChannel positions                : Front: L C R, Rear: L R, LFE\nSampling rate                    : 48.0 KHz\nResolution                       : 16 bits\nStream size                      : 239 MiB (13%)\nLanguage                         : English","torrent":{"xt":"urn:btih:6d5d266550fd45d15c5dad61a7aa17c9e53a7a53","amp;dn":"Cobra-720p+MP4+AAC+x264+BRRip+1986-CC","amp;tr":["udp%3A%2F%2Ftracker.openbittorrent.com%3A80","udp%3A%2F%2Fopen.demonii.com%3A1337","udp%3A%2F%2Ftracker.coppersurfer.tk%3A6969","udp%3A%2F%2Fexodus.desync.com%3A6969"],"infoHash":"6d5d266550fd45d15c5dad61a7aa17c9e53a7a53","infoHashBuffer":{"type":"Buffer","data":[109,93,38,101,80,253,69,209,92,93,173,97,167,170,23,201,229,58,122,83]},"announce":[],"urlList":[]}}